<?xml version="1.0" encoding="UTF-8" standalone="no"?>
<svg
   xmlns:dc="http://purl.org/dc/elements/1.1/"
   xmlns:cc="http://creativecommons.org/ns#"
   xmlns:rdf="http://www.w3.org/1999/02/22-rdf-syntax-ns#"
   xmlns:svg="http://www.w3.org/2000/svg"
   xmlns="http://www.w3.org/2000/svg"
   viewBox="0 0 2563.9997 652.21333"
   height="172.56477mm"
   width="678.3916mm"
   xml:space="preserve"
   id="svg815"
   version="1.1"><metadata
     id="metadata821"><rdf:RDF><cc:Work
         rdf:about=""><dc:format>image/svg+xml</dc:format><dc:type
           rdf:resource="http://purl.org/dc/dcmitype/StillImage" /><dc:title></dc:title></cc:Work></rdf:RDF></metadata><defs
     id="defs819"><clipPath
       id="clipPath831"
       clipPathUnits="userSpaceOnUse"><path
         id="path829"
         d="M 0,2000 H 2000 V 0 H 0 Z" /></clipPath></defs><g
     transform="matrix(1.3333333,0,0,-1.3333333,-51.333599,1659.4402)"
     id="g823"><g
       id="g825"><g
         clip-path="url(#clipPath831)"
         id="g827"><g
           transform="translate(218.2812,1244.5801)"
           id="g833"><path
             id="path835"
             style="fill:#006e9a;fill-opacity:1;fill-rule:evenodd;stroke:none"
             d="m 0,0 c -38.086,-19.287 -72.708,-44.402 -103.213,-74.907 -31.391,-31.391 -57.079,-67.145 -76.568,-106.535 v 95.073 c 0,47.502 38.867,86.369 86.361,86.369 z" /></g><g
           transform="translate(527.5352,1162.8252)"
           id="g837"><path
             id="path839"
             style="fill:#006e9a;fill-opacity:1;fill-rule:evenodd;stroke:none"
             d="m 0,0 c -37.534,14.638 -77.148,22.051 -117.886,22.051 -43.858,0 -86.411,-8.593 -126.465,-25.534 -38.692,-16.369 -73.44,-39.795 -103.275,-69.63 -29.834,-29.834 -53.261,-64.583 -69.622,-103.268 -16.949,-40.06 -25.535,-82.613 -25.535,-126.472 0,-34.72 5.382,-68.617 16.041,-101.118 -35.879,10.485 -62.293,43.767 -62.293,82.927 v 183.83 c 39.014,99.324 117.718,178.86 216.491,218.969 h 186.3 C -40.292,81.755 -2.416,45.38 0,0" /></g><g
           transform="translate(527.6602,1146.4072)"
           id="g841"><path
             id="path843"
             style="fill:#006e9a;fill-opacity:1;fill-rule:evenodd;stroke:none"
             d="m 0,0 v -69.399 c -1.954,0.886 -3.923,1.752 -5.905,2.589 -30.861,13.054 -63.641,19.671 -97.433,19.671 -33.785,0 -66.565,-6.617 -97.433,-19.671 -29.806,-12.606 -56.569,-30.65 -79.556,-53.637 -22.986,-22.987 -41.03,-49.749 -53.637,-79.556 -13.054,-30.867 -19.678,-63.647 -19.678,-97.433 0,-32.382 6.08,-63.829 18.08,-93.551 h -67.237 c -2.338,0 -4.648,0.091 -6.938,0.279 -11.692,32.599 -18.058,67.703 -18.058,104.273 0,170.818 138.966,309.792 309.784,309.792 C -76.247,23.357 -36.389,15.05 0,0" /></g><g
           transform="translate(527.5352,1162.8252)"
           id="g845"><path
             id="path847"
             style="fill:#0080b3;fill-opacity:1;fill-rule:nonzero;stroke:none"
             d="m 0,0 c -37.534,14.638 -77.148,22.051 -117.886,22.051 -43.858,0 -86.411,-8.593 -126.465,-25.534 -38.692,-16.369 -73.44,-39.795 -103.275,-69.63 -29.834,-29.834 -53.261,-64.583 -69.622,-103.268 -16.949,-40.06 -25.535,-82.613 -25.535,-126.472 0,-34.72 5.382,-68.617 16.041,-101.118 -35.879,10.485 -62.293,43.767 -62.293,82.927 v 183.83 c 39.014,99.324 117.718,178.86 216.491,218.969 h 186.3 C -40.292,81.755 -2.416,45.38 0,0" /></g><g
           transform="translate(527.6602,1146.4072)"
           id="g849"><path
             id="path851"
             style="fill:#0080b3;fill-opacity:1;fill-rule:nonzero;stroke:none"
             d="m 0,0 v -69.399 c -1.954,0.886 -3.923,1.752 -5.905,2.589 -30.861,13.054 -63.641,19.671 -97.433,19.671 -33.785,0 -66.565,-6.617 -97.433,-19.671 -29.806,-12.606 -56.569,-30.65 -79.556,-53.637 -22.986,-22.987 -41.03,-49.749 -53.637,-79.556 -13.054,-30.867 -19.678,-63.647 -19.678,-97.433 0,-32.382 6.08,-63.829 18.08,-93.551 h -67.237 c -2.338,0 -4.648,0.091 -6.938,0.279 -11.692,32.599 -18.058,67.703 -18.058,104.273 0,170.818 138.966,309.792 309.784,309.792 C -76.247,23.357 -36.389,15.05 0,0" /></g><g
           transform="translate(527.6602,1146.4072)"
           id="g853"><path
             id="path855"
             style="fill:#0092cd;fill-opacity:1;fill-rule:nonzero;stroke:none"
             d="m 0,0 v -69.399 c -1.954,0.886 -3.923,1.752 -5.905,2.589 -30.861,13.054 -63.641,19.671 -97.433,19.671 -33.785,0 -66.565,-6.617 -97.433,-19.671 -29.806,-12.606 -56.569,-30.65 -79.556,-53.637 -22.986,-22.987 -41.03,-49.749 -53.637,-79.556 -13.054,-30.867 -19.678,-63.647 -19.678,-97.433 0,-32.382 6.08,-63.829 18.08,-93.551 h -67.237 c -2.338,0 -4.648,0.091 -6.938,0.279 -11.692,32.599 -18.058,67.703 -18.058,104.273 0,170.818 138.966,309.792 309.784,309.792 C -76.247,23.357 -36.389,15.05 0,0" /></g><g
           transform="translate(527,1061.7935)"
           id="g857"><path
             id="path859"
             style="fill:#00a4e7;fill-opacity:1;fill-rule:nonzero;stroke:none"
             d="m 0,0 v -218.431 c 0,-4.873 -0.412,-9.661 -1.193,-14.318 -27.245,41.848 -59.139,49.024 -78.063,85.029 -32.312,61.449 -25.499,123.93 -25.499,123.93 0,0 -107.08,-85.021 -114.542,-229.984 -0.964,-18.756 0.44,-35.802 3.888,-51.019 H -319.11 c -12.489,28.682 -19.412,60.325 -19.412,93.551 0,129.683 105.501,235.185 235.184,235.185 C -66.286,23.943 -31.209,15.329 0,0" /></g><g
           transform="translate(653.627,831.9404)"
           id="g861"><path
             id="path863"
             style="fill:#00a4e7;fill-opacity:1;fill-rule:nonzero;stroke:none"
             d="M 0,0 -20.239,46.315 -40.754,0 Z M -20.377,151.305 80.959,-72.122 H 32.632 l -15.008,33.276 h -76.002 l -15.008,-33.276 h -48.19 z" /></g><g
           transform="translate(842.6494,855.3018)"
           id="g865"><path
             id="path867"
             style="fill:#00a4e7;fill-opacity:1;fill-rule:nonzero;stroke:none"
             d="m 0,0 c 11.05,-5.791 26.845,-18.211 37.863,-30.288 11.566,12.496 17.349,27.346 17.349,44.55 0,18.29 -6.609,33.956 -19.827,46.993 -13.402,13.039 -29.327,19.558 -47.777,19.558 -18.725,0 -34.604,-6.519 -47.639,-19.558 -13.217,-13.037 -19.826,-28.703 -19.826,-46.993 0,-18.563 6.609,-34.273 19.826,-47.13 13.035,-13.039 28.914,-19.559 47.639,-19.559 3.121,0 6.518,0.226 10.189,0.679 -7.159,6.429 -13.218,10.956 -18.175,13.582 -5.231,2.626 -11.151,4.165 -17.761,4.618 l 2.617,43.191 C -22.396,8.647 -10.557,5.434 0,0 m 35.247,-86.926 c -14.136,-6.611 -30.015,-9.916 -47.639,-9.916 -31.299,0 -57.782,10.777 -79.444,32.326 -22.029,21.551 -33.044,47.674 -33.044,78.37 0,30.514 11.015,56.727 33.044,78.64 21.846,21.822 48.328,32.733 79.444,32.733 31.026,0 57.598,-10.911 79.72,-32.733 22.121,-22.003 33.182,-48.217 33.182,-78.64 0,-27.074 -8.72,-50.708 -26.16,-70.9 8.903,-3.079 20.01,-5.025 33.32,-5.84 l -3.58,-34.602 c -29.873,1.912 -51.146,-0.708 -68.843,10.562" /></g><g
           transform="translate(1097.2129,846.3369)"
           id="g869"><path
             id="path871"
             style="fill:#00a4e7;fill-opacity:1;fill-rule:nonzero;stroke:none"
             d="M 0,0 V 132.427 H 44.885 V -0.136 c 0,-24.447 -8.766,-45.319 -26.298,-62.613 -17.624,-17.204 -38.735,-25.807 -63.335,-25.807 -24.875,0 -46.078,8.603 -63.61,25.807 -17.533,17.294 -26.298,38.166 -26.298,62.613 v 132.563 h 44.885 V 0 c 0,-23.871 20.495,-44.006 44.885,-44.006 C -20.729,-44.006 0,-23.728 0,0" /></g><g
           transform="translate(1255.3926,831.9404)"
           id="g873"><path
             id="path875"
             style="fill:#00a4e7;fill-opacity:1;fill-rule:nonzero;stroke:none"
             d="M 0,0 -20.24,46.315 -40.755,0 Z M -20.378,151.305 80.958,-72.122 H 32.631 l -15.008,33.276 h -76.002 l -15.007,-33.276 h -48.19 z" /></g><g
           transform="translate(1393.1963,978.7637)"
           id="g877"><path
             id="path879"
             style="fill:#00a4e7;fill-opacity:1;fill-rule:nonzero;stroke:none"
             d="m 0,0 v -175.211 h 89.22 v -43.734 H -44.61 V 0 Z" /></g><g
           transform="translate(1628.4805,979.3066)"
           id="g881"><path
             id="path883"
             style="fill:#00a4e7;fill-opacity:1;fill-rule:nonzero;stroke:none"
             d="m 0,0 v -43.871 h -89.221 v -44.141 h 66.916 v -43.871 h -66.916 v -44.141 H 0 v -43.735 H -133.83 V 0 Z" /></g><g
           transform="translate(1746.7314,905.4199)"
           id="g885"><path
             id="path887"
             style="fill:#00a4e7;fill-opacity:1;fill-rule:nonzero;stroke:none"
             d="m 0,0 c 0,7.968 -2.938,14.985 -8.813,21.052 -5.788,5.552 -16.778,8.693 -27.538,8.693 h -25.057 v -60.44 h 17.211 v -0.137 h 14.869 C -13.071,-30.832 0,-16.692 0,0 m -106.019,73.344 h 72.423 c 24.711,0 44.694,-9.205 58.104,-22.276 C 38.019,37.739 45.986,25.581 45.986,1.358 v -5.705 c 0,-14.759 -4.681,-28.658 -14.044,-41.697 C 24.146,-56.81 17.973,-61.39 5.369,-66.28 l 51.632,-79.322 H 2.478 l -63.749,96.842 v -96.842 h -44.61 z" /></g><g
           transform="translate(1961.5,978.7637)"
           id="g889"><path
             id="path891"
             style="fill:#00a4e7;fill-opacity:1;fill-rule:nonzero;stroke:none"
             d="m 0,0 v -43.599 h -54.524 v -175.346 h -44.747 v 175.346 h -54.662 V 0 Z" /></g><g
           transform="translate(1907,764.5)"
           id="g893"><path
             id="path895"
             style="fill:none;stroke:#00a4e7;stroke-width:15;stroke-linecap:butt;stroke-linejoin:miter;stroke-miterlimit:10;stroke-dasharray:none;stroke-opacity:1"
             d="M 0,0 H -1607" /></g></g></g></g></svg>